<mxfile host="app.diagrams.net" modified="2022-01-11T11:33:20.740Z" agent="5.0 (Macintosh; Intel Mac OS X 10_15_7) AppleWebKit/537.36 (KHTML, like Gecko) Chrome/90.0.4430.212 Safari/537.36" etag="zX-MtOKTzBkSBaOckmBb" version="16.2.4" type="github">
  <diagram id="d1Ql4OmQvdaVHPoU8nEq" name="Page-1">
    <mxGraphModel dx="1238" dy="809" grid="1" gridSize="10" guides="1" tooltips="1" connect="1" arrows="1" fold="1" page="1" pageScale="1" pageWidth="827" pageHeight="1169" math="0" shadow="0">
      <root>
        <mxCell id="0" />
        <mxCell id="1" parent="0" />
        <mxCell id="DXVrxlqLf282C6SnYbfn-1" value="挺好的" style="rounded=0;whiteSpace=wrap;html=1;" vertex="1" parent="1">
          <mxGeometry x="350" y="380" width="120" height="60" as="geometry" />
        </mxCell>
      </root>
    </mxGraphModel>
  </diagram>
</mxfile>
